<?xml version="1.0" standalone="no"?>
<!DOCTYPE svg PUBLIC "-//W3C//DTD SVG 20010904//EN"
 "http://www.w3.org/TR/2001/REC-SVG-20010904/DTD/svg10.dtd">
<svg version="1.0" xmlns="http://www.w3.org/2000/svg"
 width="960.000000pt" height="960.000000pt" viewBox="0 0 960.000000 960.000000"
 preserveAspectRatio="xMidYMid meet">
<metadata>
Created by potrace 1.11, written by Peter Selinger 2001-2013
</metadata>
<g transform="translate(0.000000,960.000000) scale(0.100000,-0.100000)"
fill="#000000" stroke="none">
<path d="M3820 4790 l0 -1800 435 0 435 0 0 665 0 665 540 0 540 0 0 380 0
380 -540 0 -540 0 0 380 0 380 650 0 650 0 0 375 0 375 -1085 0 -1085 0 0
-1800z"/>
<path d="M2075 5294 c-132 -21 -239 -76 -336 -173 -119 -119 -169 -244 -169
-421 0 -186 50 -312 169 -431 120 -120 248 -172 425 -172 110 0 196 21 295 70
86 43 198 143 185 164 -4 8 -48 72 -97 142 l-89 129 -51 -51 c-73 -74 -144
-106 -232 -106 -58 0 -78 5 -116 27 -78 46 -119 127 -119 237 0 149 90 241
236 241 71 0 143 -29 216 -86 32 -25 60 -45 62 -43 2 2 40 67 86 143 l83 140
-51 47 c-58 53 -149 102 -232 124 -58 16 -214 27 -265 19z"/>
<path d="M7323 5290 c-229 -42 -415 -219 -469 -448 -21 -89 -14 -253 15 -335
55 -156 150 -273 277 -339 95 -50 179 -71 289 -71 286 0 516 182 581 458 22
96 15 266 -16 352 -61 175 -209 314 -390 367 -67 20 -217 28 -287 16z m195
-356 c85 -35 142 -127 142 -230 0 -111 -47 -196 -132 -238 -85 -43 -167 -30
-236 37 -60 57 -77 101 -77 197 0 94 18 141 72 192 59 56 156 74 231 42z"/>
</g>
</svg>
